<?xml version="1.0" encoding="UTF-8"?>
<!DOCTYPE svg PUBLIC "-//W3C//DTD SVG 1.1//EN" "http://www.w3.org/Graphics/SVG/1.1/DTD/svg11.dtd">
<!-- Creator: CorelDRAW -->
<svg xmlns="http://www.w3.org/2000/svg" xml:space="preserve" width="2048px" height="2048px" style="shape-rendering:geometricPrecision; text-rendering:geometricPrecision; image-rendering:optimizeQuality; fill-rule:evenodd; clip-rule:evenodd"
viewBox="0 0 2048 2048"
 xmlns:xlink="http://www.w3.org/1999/xlink">
 <defs>
  <style type="text/css">
   <![CDATA[
    .fil0 {fill:none}
    .fil1 {fill:#8BC34A}
    .fil2 {fill:#FFFFFE}
   ]]>
  </style>
 </defs>
 <g id="Layer_x0020_1">
  <metadata id="CorelCorpID_0Corel-Layer"/>
  <rect class="fil0" width="2048" height="2048"/>
  <rect class="fil1" width="2048" height="2048" rx="256.001" ry="256.001"/>
  <path class="fil2" d="M1199.61 1166.28l16.3961 209.61 -159.852 -126.941 0 150.536 217.047 125.432c15.2386,8.80631 20.315,28.5402 11.5996,43.7504 -8.7756,15.313 -28.5142,20.7024 -43.8095,11.8536l-184.837 -106.936 0 89.1072 94.069 54.4052c15.2398,8.81457 20.3835,28.5 11.6764,43.7422 -8.76142,15.3378 -28.5225,20.7732 -43.8296,11.8949l-61.9158 -35.9126 0 123.38c0,17.3929 -14.0941,31.9158 -31.5744,31.9158l-0.48189 0 -0.0933072 0 -0.0933072 0 -0.48189 0c-17.4803,0 -31.5744,-14.5228 -31.5744,-31.9158l0 -123.38 -61.9158 35.9126c-15.3071,8.87835 -35.0681,3.44292 -43.8296,-11.8949 -8.70709,-15.2421 -3.56339,-34.9276 11.6764,-43.7422l94.069 -54.4052 0 -89.1072 -184.837 106.936c-15.2953,8.84883 -35.0339,3.45945 -43.8095,-11.8536 -8.71536,-15.2102 -3.63898,-34.9441 11.5996,-43.7504l217.047 -125.432 0 -150.536 -159.852 126.941 16.3961 -209.61 -143.811 82.9784 0 254.799c0,17.5347 -14.3835,31.9465 -31.924,31.9465 -17.6327,0 -32.2122,-14.2406 -32.1957,-31.9477l0.196063 -217.832 -63.8918 38.5559 0 115.299c0,17.602 -14.4106,31.924 -31.9937,31.924 -17.6351,0 -32.1272,-14.2323 -32.1272,-31.924l0 -78.3508 -112.44 63.2941c-4.94528,2.85591 -10.3382,4.16929 -16.0276,4.16929 -11.4189,0 -22.0642,-6.13937 -27.7618,-16.0382 -8.79686,-15.2847 -3.45591,-34.9146 11.8016,-43.7209l113.489 -65.504 -74.2926 -42.228c-15.3154,-8.8689 -20.5252,-28.5142 -11.615,-43.8059 8.87363,-15.2315 28.1988,-20.7083 43.5544,-11.8287l106.404 60.7453 77.2938 -44.4697 -194.286 -115.616c-15.2906,-8.81812 -20.6185,-28.3335 -11.928,-43.6961 8.75434,-15.4725 28.4445,-20.8311 43.839,-11.9492l226.308 134.128 129.324 -74.615 -187.793 -82.8154 0 -7.54961 187.793 -82.8154 -129.324 -74.615 -226.308 134.128c-15.3945,8.8819 -35.0847,3.52323 -43.839,-11.9492 -8.69056,-15.3626 -3.3626,-34.878 11.928,-43.6961l194.286 -115.616 -77.2938 -44.4697 -106.404 60.7453c-15.3555,8.87953 -34.6807,3.40276 -43.5544,-11.8287 -8.91024,-15.2917 -3.7004,-34.937 11.615,-43.8059l74.2926 -42.228 -113.489 -65.504c-15.2575,-8.80631 -20.5984,-28.4362 -11.8016,-43.7209 5.69764,-9.89883 16.3429,-16.0382 27.7618,-16.0382 5.68937,0 11.0823,1.31339 16.0276,4.16929l112.44 63.2941 0 -78.3508c0,-17.6917 14.4921,-31.924 32.1272,-31.924 17.5831,0 31.9937,14.3221 31.9937,31.924l0 115.299 63.8918 38.5559 -0.196063 -217.832c-0.0165354,-17.7071 14.563,-31.9477 32.1957,-31.9477 17.5406,0 31.924,14.4118 31.924,31.9465l0 254.799 143.811 82.9784 -16.3961 -209.61 159.852 126.941 0 -150.536 -217.047 -125.432c-15.2386,-8.80631 -20.315,-28.5402 -11.5996,-43.7504 8.7756,-15.313 28.5142,-20.7024 43.8095,-11.8536l184.837 106.936 0 -89.1072 -94.069 -54.4052c-15.2398,-8.81457 -20.3835,-28.5 -11.6764,-43.7422 8.76142,-15.3378 28.5225,-20.7732 43.8296,-11.8949l61.9158 35.9126 0 -123.38c0,-17.3929 14.0941,-31.9158 31.5744,-31.9158l0.48189 0 0.0933072 0 0.0933072 0 0.48189 0c17.4803,0 31.5744,14.5228 31.5744,31.9158l0 123.38 61.9158 -35.9126c15.3071,-8.87835 35.0681,-3.44292 43.8296,11.8949 8.70709,15.2421 3.56339,34.9276 -11.6764,43.7422l-94.069 54.4052 0 89.1072 184.837 -106.936c15.2953,-8.84883 35.0339,-3.45945 43.8095,11.8536 8.71536,15.2102 3.63898,34.9441 -11.5996,43.7504l-217.047 125.432 0 150.536 159.852 -126.941 -16.3961 209.61 143.811 -82.9784 0 -254.799c0,-17.5347 14.3835,-31.9465 31.924,-31.9465 17.6327,0 32.2122,14.2406 32.1957,31.9477l-0.196063 217.832 63.8918 -38.5559 0 -115.299c0,-17.602 14.4106,-31.924 31.9937,-31.924 17.6351,0 32.1272,14.2323 32.1272,31.924l0 78.3508 112.44 -63.2941c4.94528,-2.85591 10.3382,-4.16929 16.0276,-4.16929 11.4189,0 22.0642,6.13937 27.7618,16.0382 8.79686,15.2847 3.45591,34.9146 -11.8016,43.7209l-113.489 65.504 74.2926 42.228c15.3154,8.8689 20.5252,28.5142 11.615,43.8059 -8.87363,15.2315 -28.1988,20.7083 -43.5544,11.8287l-106.404 -60.7453 -77.2938 44.4697 194.286 115.616c15.2906,8.81812 20.6185,28.3335 11.928,43.6961 -8.75434,15.4725 -28.4445,20.8311 -43.839,11.9492l-226.308 -134.128 -129.324 74.615 187.793 82.8154 0 7.54961 -187.793 82.8154 129.324 74.615 226.308 -134.128c15.3945,-8.8819 35.0847,-3.52323 43.839,11.9492 8.69056,15.3626 3.3626,34.878 -11.928,43.6961l-194.286 115.616 77.2938 44.4697 106.404 -60.7453c15.3555,-8.87953 34.6807,-3.40276 43.5544,11.8287 8.91024,15.2917 3.7004,34.937 -11.615,43.8059l-74.2926 42.228 113.489 65.504c15.2575,8.80631 20.5984,28.4362 11.8016,43.7209 -5.69764,9.89883 -16.3429,16.0382 -27.7618,16.0382 -5.68937,0 -11.0823,-1.31339 -16.0276,-4.16929l-112.44 -63.2941 0 78.3508c0,17.6917 -14.4921,31.924 -32.1272,31.924 -17.5831,0 -31.9937,-14.3221 -31.9937,-31.924l0 -115.299 -63.8918 -38.5559 0.196063 217.832c0.0165354,17.7071 -14.563,31.9477 -32.1957,31.9477 -17.5406,0 -31.924,-14.4118 -31.924,-31.9465l0 -254.799 -143.811 -82.9784z"/>
 </g>
</svg>
